<svg xmlns="http://www.w3.org/2000/svg" viewBox="0 0 100 100">
  <circle cx="50" cy="50" r="48" fill="#f7931a" stroke="#e07a00" stroke-width="2"/>
  <g transform="translate(50,50) scale(0.9)" fill="#fff" stroke="#fff" stroke-width="1">
    <path d="M10.5-21.9c-0.9-3.8-4.7-6.1-8.5-5.2l-6.8 1.7 1.7-6.8c0.9-3.8-1.4-7.6-5.2-8.5s-7.6 1.4-8.5 5.2L-17-14.9l-6.8 1.7c-3.8 0.9-6.1 4.7-5.2 8.5 0.9 3.8 4.7 6.1 8.5 5.2l6.8-1.7-1.7 6.8c-0.9 3.8 1.4 7.6 5.2 8.5 3.8 0.9 7.6-1.4 8.5-5.2l1.7-6.8 6.8-1.7c3.8-0.9 6.1-4.7 5.2-8.5z"/>
    <path d="M-6 9.1c0.9 3.8 4.7 6.1 8.5 5.2 3.8-0.9 6.1-4.7 5.2-8.5L10 5l6.8-1.7c3.8-0.9 6.1-4.7 5.2-8.5-0.9-3.8-4.7-6.1-8.5-5.2L3.9-5.3 2.2-12.1c-0.9-3.8-4.7-6.1-8.5-5.2-3.8 0.9-6.1 4.7-5.2 8.5l1.7 6.8-6.8 1.7C-20 5.2-22.3 9-21.4 12.8c0.9 3.8 4.7 6.1 8.5 5.2L-6 9.1z"/>
    <path d="M-2.9-3.3l4.8-1.2c1.6-0.4 2.6-2 2.1-3.6-0.4-1.6-2-2.6-3.6-2.1l-4.8 1.2 2.2-8.6-1.9 0.5c-1.6 0.4-2.6 2-2.1 3.6 0.4 1.6 2 2.6 3.6 2.1l1.3-0.3 0.5 1.9-1.3 0.3c-1.6 0.4-2.6 2-2.1 3.6 0.4 1.6 2 2.6 3.6 2.1l1.9-0.5 2.2-8.6 1.9-0.5-2.2 8.6z"/>
  </g>
</svg>
